HIERARCHY
ROOT Spine
{
    OFFSET 0.0 0.0 -0.0
    CHANNELS 6 Xposition Yposition Zposition Zrotation Xrotation Yrotation
    JOINT ShoulderCenter
    {
        OFFSET 0.0 27.76237678527832 0.0
        CHANNELS 3 Zrotation Xrotation Yrotation
        JOINT LeftShoulder
        {
            OFFSET 20.745866775512695 0.0 0.0
            CHANNELS 3 Zrotation Xrotation Yrotation
            JOINT LeftElbow
            {
                OFFSET 25.892244338989258 0.0 0.0
                CHANNELS 3 Zrotation Xrotation Yrotation
                JOINT LeftHand
                {
                    OFFSET 34.040382385253906 0.0 0.0
                    CHANNELS 3 Zrotation Xrotation Yrotation
                    End Site
                    {
                        OFFSET 13.616153717041016 0.0 0.0
                    }
                }
            }
        }
        JOINT RightShoulder
        {
            OFFSET -20.745866775512695 0.0 0.0
            CHANNELS 3 Zrotation Xrotation Yrotation
            JOINT RightElbow
            {
                OFFSET -25.892244338989258 0.0 0.0
                CHANNELS 3 Zrotation Xrotation Yrotation
                JOINT RightHand
                {
                    OFFSET -34.040382385253906 0.0 0.0
                    CHANNELS 3 Zrotation Xrotation Yrotation
                    End Site
                    {
                        OFFSET -13.616153717041016 0.0 0.0
                    }
                }
            }
        }
        End Site
        {
            OFFSET 0.0 11.104948997497559 0.0
        }
    }
    JOINT LeftHip
    {
        OFFSET 20.662599704048407 -20.662599704048407 0.0
        CHANNELS 3 Zrotation Xrotation Yrotation
        JOINT LeftKnee
        {
            OFFSET 0.0 -56.94123840332031 0.0
            CHANNELS 3 Zrotation Xrotation Yrotation
            JOINT LeftFoot
            {
                OFFSET 0.0 -45.874183654785156 0.0
                CHANNELS 3 Zrotation Xrotation Yrotation
                End Site
                {
                    OFFSET 0.0 0.0 18.349674224853516
                }
            }
        }
    }
    JOINT RightHip
    {
        OFFSET -20.662599704048407 -20.662599704048407 0.0
        CHANNELS 3 Zrotation Xrotation Yrotation
        JOINT RightKnee
        {
            OFFSET 0.0 -56.94123840332031 0.0
            CHANNELS 3 Zrotation Xrotation Yrotation
            JOINT RightFoot
            {
                OFFSET 0.0 -45.874183654785156 0.0
                CHANNELS 3 Zrotation Xrotation Yrotation
                End Site
                {
                    OFFSET 0.0 0.0 18.349674224853516
                }
            }
        }
    }
}
MOTION
Frames: 9
Frame Time: 0.03333333333333333
-14.5964994430542 20.327199935913086 -270.11297607421875 -9.69852449612582 42.124912445385995 -169.06207306501958 -5.880065628525918e-08 -1.2211929113704518e-06 -4.316896474689415 14.263664610739774 -41.539941083081516 89.77108079762156 -3.5701438828465362e-06 1.1262657475561913e-06 20.015546187941812 0.0 0.0 0.0 25.017121304497792 -36.01342253161056 -58.85222639174189 -2.1963897872038484e-07 -9.062631177488215e-07 -15.08772060192866 3.1805546814635164e-15 -3.1805546814635164e-15 3.1805546814635164e-15 -5.43659185985873 35.003207366015765 50.58261106916751 9.191659535497946 7.678866687043526 -9.44278040885796 0.0 0.0 -2.512762438773422e-15 -1.1710881843843142 36.28615964733688 -49.07197147770036 -13.331084169347337 6.591030763203093 9.103524133962077 -1.987846675914698e-16 4.3966644765734004e-33 -2.53450451179124e-15
-14.338000297546387 20.379899978637695 -270.2153015136719 -9.185478834115163 42.52322639556798 -169.625815406523 -1.898563269452318e-07 -2.6138491323057876e-06 -4.3450150871523 12.323172806605683 -41.182691402905824 88.0643295886273 9.553909410298993e-08 -3.75121858349042e-06 20.174645337294113 6.361109362927033e-15 -9.541664044390547e-15 6.361109362927033e-15 27.91628784194011 -35.04229403384296 -57.43984650168061 3.6828282697068207e-06 2.3798576644401175e-06 -14.926875372847856 0.0 0.0 0.0 -5.55503061750573 35.36591165886616 49.84678682131153 8.702863777581788 6.900267771209769 -8.327986536060969 -1.987846675914698e-16 3.975693351829396e-16 1.987846675914698e-16 -1.2907432422348566 36.519803613254915 -49.707961910584196 -13.029009161160532 6.941694241237065 9.641676070322104 -7.951386703658791e-16 4.827710013492361e-32 -6.957463365701441e-15
-14.07960033416748 20.432600021362305 -270.31768798828125 -8.665866844422418 42.91932347820801 -170.19342673144874 -1.6568368144696782e-07 4.665261026634231e-06 -4.373884363799857 10.45698096935034 -40.76817509036145 86.42529112723506 -7.716862383745008e-07 4.378530854603748e-06 20.354516112198315 -8.827812596100317e-32 3.1805546814635168e-15 3.1805546814635168e-15 30.792796130096963 -33.999354981788734 -56.074230488908476 -5.271893926031916e-06 1.33068357444276e-06 -14.78500247455798 -4.770832022195274e-15 -3.1805546814635168e-15 6.361109362927033e-15 -5.677656709583457 35.727297525059925 49.132732733708885 8.257816529612285 6.100707214414151 -7.230705892921853 -2.1557664915159526e-32 3.975693351829396e-16 6.213573867448989e-15 -1.4115213808433955 36.7520414158464 -50.371846992537726 -12.75039281423262 7.301088740893887 10.199676687480995 0.0 0.0 -2.0375428428125655e-15
-14.19170093536377 20.58370018005371 -270.34197998046875 -8.825276593731283 43.2939911468236 -170.35570821292458 8.744104461292549e-08 -9.822607371583256e-07 -4.123071413601247 11.44165334614295 -40.885610244397576 87.5077632330759 1.436782636458085e-06 2.629633756648812e-06 19.70822414036173 6.3611093629270335e-15 3.1805546814635168e-15 -1.7655625192200634e-31 28.0866583603778 -34.89055581938969 -57.3430853530005 -4.139471274873387e-06 -7.47321355156463e-07 -15.153797860657086 3.1805546814635168e-15 0.0 0.0 -5.484882683142356 36.206900123600356 49.923809484721026 9.172719358744844 7.520142150028848 -9.353546562909706 0.0 0.0 -3.1634716240923747e-15 -1.4325082567477454 37.11373721114171 -49.2455699642444 -13.11275528657459 7.796940359366859 10.922524077600889 0.0 0.0 -2.087239009710433e-15
-14.303900718688965 20.734800338745117 -270.36639404296875 -8.986984415006653 43.66891206588884 -170.51934431362662 4.01097087298445e-07 2.4055396632399264e-06 -3.869144783286399 12.516410439318403 -40.98257977454127 88.65329826640512 -8.398897190328493e-07 -3.2752778471975162e-06 19.062479392626766 0.0 0.0 -3.1805546814635168e-15 25.45040928835711 -35.68379187655271 -58.58406422619465 1.988630480523256e-06 4.049714286345193e-06 -15.54761729675857 -8.827812596100317e-32 -3.1805546814635164e-15 -3.1805546814635164e-15 -5.297644970071925 36.68808994817318 50.74146590090054 10.136366007529867 8.909432350182884 -11.638631009371604 0.0 0.0 -1.2790939206642524e-15 -1.4595848532167734 37.476286727871106 -48.13253562648958 -13.465441582890511 8.301539876584693 11.651982478142893 0.0 0.0 -2.4848083448933734e-15
-14.261099815368652 20.718101501464844 -270.45599365234375 -8.887352218407063 43.41416446735775 -170.24664382890546 4.763378874767775e-07 4.342378421673147e-07 -3.8272614992373692 11.538654348933173 -41.249668181891714 87.8994638281175 7.377217093779699e-07 9.625345627848155e-06 19.6363915973371 0.0 0.0 -9.541664044390549e-15 25.98042328501798 -35.47586301698886 -58.68943192526505 -2.907931297632662e-06 -4.588316440437716e-07 -15.067873798684944 -9.541664044390549e-15 3.180554681463516e-15 3.1805546814635168e-15 -5.028292184577052 36.55751753907046 50.187840795465384 9.691636508869184 8.647286336636478 -11.12932763368735 0.0 0.0 2.031330821950332e-15 -1.14077032722831 37.45239969138976 -48.31816240960634 -13.540625368659981 8.568215870512711 12.12002565577594 0.0 0.0 -2.683593012484842e-15
-14.21820068359375 20.701499938964844 -270.54559326171875 -8.788276125044082 43.15953558298672 -169.9729122064892 -2.556059108084714e-07 1.4203287177731603e-06 -3.7860604386094088 10.59936901343963 -41.506932872875 87.1660073469071 -1.3301577889428993e-06 -8.17323789078387e-07 20.205734740138023 -6.3611093629270335e-15 -3.1805546814635168e-15 3.1805546814635168e-15 26.559892634989122 -35.250762651706474 -58.76667094265001 -2.4070916449275426e-06 5.450015782180483e-07 -14.591099107585372 -6.3611093629270335e-15 3.1805546814635168e-15 -3.1805546814635168e-15 -4.761161245238737 36.425604499958176 49.635066131357995 9.24854135461011 8.382748940168646 -10.630057000537212 0.0 0.0 -3.056314264218848e-15 -0.8223803537101838 37.4260296187854 -48.50097114277944 -13.613155353024649 8.836944946797901 12.595236759581615 3.9756933518293955e-16 4.138037154422024e-33 1.1927080055488186e-15
-14.00610065460205 20.7539005279541 -270.5487060546875 -8.475900226895899 43.44258216424679 -170.18767296256817 -2.1376073361920437e-07 7.811239433218051e-07 -4.377710769700878 12.247970658640817 -41.17708106334327 88.0041324672342 -5.230442921458138e-07 5.764024189794012e-06 20.546699626504957 6.3611093629270335e-15 3.1805546814635168e-15 6.3611093629270335e-15 28.601464493212227 -34.673935135225754 -57.305790392381574 -3.7316667521695344e-06 -1.161764469043811e-06 -14.951465526513887 -6.3611093629270335e-15 -7.062250076880254e-31 1.2722218725854067e-14 -4.57820847884231 36.59092998835169 48.591806173076684 8.601490119271986 7.270198884780713 -9.18352366714068 0.0 0.0 1.983187660268023e-15 -0.5774425715786966 37.58876057382001 -49.05023238037659 -13.763815814331538 8.703503587729303 12.584956027542495 -3.9756933518293955e-16 3.275946080584102e-33 -9.442271710594813e-16
-13.794000625610352 20.80630111694336 -270.5517883300781 -8.160918819982554 43.72501300990437 -170.39865457887532 -1.8065955969437029e-07 1.8368538804896934e-06 -4.9751079908945925 13.846177007106776 -40.8244788280454 88.79769591912118 -4.739303016473143e-06 2.4209239982086827e-06 20.890346505689994 1.7655625192200634e-31 -3.1805546814635164e-15 6.361109362927033e-15 30.54263291327816 -34.0836729556763 -55.91835217062757 -2.1936470081205983e-06 -2.3055474254395417e-06 -15.317950199292643 -6.3611093629270335e-15 -1.7655625192200634e-31 3.1805546814635168e-15 -4.390400401171433 36.75667595630034 47.53947559817366 8.005099614910657 6.136007377032331 -7.725786507938703 -2.7165971455666068e-33 3.9756933518293955e-16 7.830058171193294e-16 -0.32673816840653447 37.75241362708279 -49.619222993210016 -13.913883672526053 8.56513615270281 12.565602782892043 -3.975693351829396e-16 -1.793149433582877e-32 5.168401357378215e-15
